<svg width="158" height="42" viewBox="0 0 158 42" fill="none" xmlns="http://www.w3.org/2000/svg">
<path d="M23.65 31V15.71H26.158V31H23.65ZM28.6148 24.884C28.6148 21.144 31.1448 18.68 34.3568 18.68C36.3588 18.68 37.8328 19.648 38.5368 20.638V18.878H41.0668V36.764H38.5368V29.24C37.8328 30.186 36.3148 31.198 34.2688 31.198C31.1448 31.198 28.6148 28.624 28.6148 24.884ZM38.5368 24.928C38.5368 22.332 36.7548 20.858 34.8628 20.858C32.9928 20.858 31.1888 22.266 31.1888 24.884C31.1888 27.502 32.9928 29.02 34.8628 29.02C36.7548 29.02 38.5368 27.546 38.5368 24.928ZM46.8689 20.682C47.6609 19.582 49.1789 18.68 51.0929 18.68C54.3049 18.68 56.7909 21.144 56.7909 24.884C56.7909 28.624 54.2829 31.198 51.0929 31.198C49.0909 31.198 47.6609 30.296 46.8689 29.24V31H44.3609V14.72H46.8689V20.682ZM54.2389 24.884C54.2389 22.266 52.4349 20.858 50.5429 20.858C48.6729 20.858 46.8689 22.332 46.8689 24.928C46.8689 27.546 48.6729 29.02 50.5429 29.02C52.4349 29.02 54.2389 27.502 54.2389 24.884ZM58.4351 24.884C58.4351 21.144 60.9651 18.68 64.1551 18.68C66.2011 18.68 67.6091 19.648 68.3571 20.638V18.878H70.8871V31H68.3571V29.196C67.5871 30.23 66.1351 31.198 64.1111 31.198C60.9651 31.198 58.4351 28.624 58.4351 24.884ZM68.3571 24.928C68.3571 22.332 66.5751 20.858 64.6831 20.858C62.8131 20.858 61.0091 22.266 61.0091 24.884C61.0091 27.502 62.8131 29.02 64.6831 29.02C66.5751 29.02 68.3571 27.546 68.3571 24.928ZM74.1813 31V14.72H76.6893V31H74.1813ZM88.1 20.286C88.1 18.746 87.22 17.756 85.262 17.756H82.49V22.882H85.262C87.22 22.882 88.1 21.804 88.1 20.286ZM79.982 15.71H85.262C88.892 15.71 90.674 17.8 90.674 20.286C90.674 22.09 89.706 24.026 87.132 24.664L90.916 31H87.924L84.404 24.884H82.49V31H79.982V15.71ZM93.0464 24.884C93.0464 21.144 95.5764 18.68 98.7664 18.68C100.812 18.68 102.22 19.648 102.968 20.638V18.878H105.498V31H102.968V29.196C102.198 30.23 100.746 31.198 98.7224 31.198C95.5764 31.198 93.0464 28.624 93.0464 24.884ZM102.968 24.928C102.968 22.332 101.186 20.858 99.2944 20.858C97.4244 20.858 95.6204 22.266 95.6204 24.884C95.6204 27.502 97.4244 29.02 99.2944 29.02C101.186 29.02 102.968 27.546 102.968 24.928ZM111.301 20.682C112.093 19.582 113.611 18.68 115.525 18.68C118.737 18.68 121.223 21.144 121.223 24.884C121.223 28.624 118.715 31.198 115.525 31.198C113.523 31.198 112.093 30.296 111.301 29.24V31H108.793V14.72H111.301V20.682ZM118.671 24.884C118.671 22.266 116.867 20.858 114.975 20.858C113.105 20.858 111.301 22.332 111.301 24.928C111.301 27.546 113.105 29.02 114.975 29.02C116.867 29.02 118.671 27.502 118.671 24.884ZM122.867 24.884C122.867 21.144 125.397 18.68 128.587 18.68C130.633 18.68 132.041 19.648 132.789 20.638V18.878H135.319V31H132.789V29.196C132.019 30.23 130.567 31.198 128.543 31.198C125.397 31.198 122.867 28.624 122.867 24.884ZM132.789 24.928C132.789 22.332 131.007 20.858 129.115 20.858C127.245 20.858 125.441 22.266 125.441 24.884C125.441 27.502 127.245 29.02 129.115 29.02C131.007 29.02 132.789 27.546 132.789 24.928ZM147.215 31V24.224C147.215 22.002 146.005 20.858 144.179 20.858C142.331 20.858 141.121 22.002 141.121 24.224V31H138.613V18.878H141.121V20.264C141.935 19.274 143.277 18.68 144.729 18.68C147.567 18.68 149.701 20.462 149.701 23.85V31H147.215ZM152.9 31V18.878H155.408V31H152.9ZM154.176 17.272C153.274 17.272 152.57 16.568 152.57 15.666C152.57 14.764 153.274 14.06 154.176 14.06C155.056 14.06 155.76 14.764 155.76 15.666C155.76 16.568 155.056 17.272 154.176 17.272Z" fill="white"/>
<path d="M12.336 20.0335C-16.0034 43.3533 46.5624 26.9327 10.4012 40.8221C-1.19269 45.2753 0.0377193 37.0336 0.0377193 17.2574C0.0377193 -2.51889 3.41813 -3.51349 12.336 5.32695C22.455 15.3582 19.8218 14.4812 12.336 20.0335Z" fill="#FBBA20"/>
</svg>
