<svg width="157" height="42" viewBox="0 0 157 42" fill="none" xmlns="http://www.w3.org/2000/svg">
<path d="M32.728 24.432C33.624 24.592 34.384 25.064 35.008 25.848C35.632 26.632 35.944 27.52 35.944 28.512C35.944 29.36 35.72 30.128 35.272 30.816C34.84 31.488 34.208 32.024 33.376 32.424C32.544 32.808 31.576 33 30.472 33H23.8V16.32H30.16C31.296 16.32 32.272 16.512 33.088 16.896C33.904 17.28 34.52 17.8 34.936 18.456C35.352 19.096 35.56 19.816 35.56 20.616C35.56 21.576 35.304 22.376 34.792 23.016C34.28 23.656 33.592 24.128 32.728 24.432ZM26.536 23.328H29.92C30.816 23.328 31.512 23.128 32.008 22.728C32.52 22.312 32.776 21.72 32.776 20.952C32.776 20.2 32.52 19.616 32.008 19.2C31.512 18.768 30.816 18.552 29.92 18.552H26.536V23.328ZM30.232 30.768C31.16 30.768 31.888 30.544 32.416 30.096C32.944 29.648 33.208 29.024 33.208 28.224C33.208 27.408 32.928 26.76 32.368 26.28C31.808 25.8 31.064 25.56 30.136 25.56H26.536V30.768H30.232ZM38.0052 26.328C38.0052 25 38.2772 23.824 38.8212 22.8C39.3812 21.776 40.1332 20.984 41.0772 20.424C42.0372 19.848 43.0932 19.56 44.2452 19.56C45.2852 19.56 46.1892 19.768 46.9572 20.184C47.7412 20.584 48.3652 21.088 48.8292 21.696V19.776H51.5892V33H48.8292V31.032C48.3652 31.656 47.7332 32.176 46.9332 32.592C46.1332 33.008 45.2212 33.216 44.1972 33.216C43.0612 33.216 42.0212 32.928 41.0772 32.352C40.1332 31.76 39.3812 30.944 38.8212 29.904C38.2772 28.848 38.0052 27.656 38.0052 26.328ZM48.8292 26.376C48.8292 25.464 48.6372 24.672 48.2532 24C47.8852 23.328 47.3972 22.816 46.7892 22.464C46.1812 22.112 45.5252 21.936 44.8212 21.936C44.1172 21.936 43.4612 22.112 42.8532 22.464C42.2452 22.8 41.7492 23.304 41.3652 23.976C40.9972 24.632 40.8132 25.416 40.8132 26.328C40.8132 27.24 40.9972 28.04 41.3652 28.728C41.7492 29.416 42.2452 29.944 42.8532 30.312C43.4772 30.664 44.1332 30.84 44.8212 30.84C45.5252 30.84 46.1812 30.664 46.7892 30.312C47.3972 29.96 47.8852 29.448 48.2532 28.776C48.6372 28.088 48.8292 27.288 48.8292 26.376ZM57.9188 15.24V33H55.1828V15.24H57.9188ZM64.2469 21.744C64.7109 21.104 65.3429 20.584 66.1429 20.184C66.9589 19.768 67.8629 19.56 68.8549 19.56C70.0229 19.56 71.0789 19.84 72.0229 20.4C72.9669 20.96 73.7109 21.76 74.2549 22.8C74.7989 23.824 75.0709 25 75.0709 26.328C75.0709 27.656 74.7989 28.848 74.2549 29.904C73.7109 30.944 72.9589 31.76 71.9989 32.352C71.0549 32.928 70.0069 33.216 68.8549 33.216C67.8309 33.216 66.9189 33.016 66.1189 32.616C65.3349 32.216 64.7109 31.704 64.2469 31.08V33H61.5109V15.24H64.2469V21.744ZM72.2869 26.328C72.2869 25.416 72.0949 24.632 71.7109 23.976C71.3429 23.304 70.8469 22.8 70.2229 22.464C69.6149 22.112 68.9589 21.936 68.2549 21.936C67.5669 21.936 66.9109 22.112 66.2869 22.464C65.6789 22.816 65.1829 23.328 64.7989 24C64.4309 24.672 64.2469 25.464 64.2469 26.376C64.2469 27.288 64.4309 28.088 64.7989 28.776C65.1829 29.448 65.6789 29.96 66.2869 30.312C66.9109 30.664 67.5669 30.84 68.2549 30.84C68.9589 30.84 69.6149 30.664 70.2229 30.312C70.8469 29.944 71.3429 29.416 71.7109 28.728C72.0949 28.04 72.2869 27.24 72.2869 26.328ZM76.8646 26.328C76.8646 25 77.1366 23.824 77.6806 22.8C78.2406 21.776 78.9926 20.984 79.9366 20.424C80.8966 19.848 81.9526 19.56 83.1046 19.56C84.1446 19.56 85.0486 19.768 85.8166 20.184C86.6006 20.584 87.2246 21.088 87.6886 21.696V19.776H90.4486V33H87.6886V31.032C87.2246 31.656 86.5926 32.176 85.7926 32.592C84.9926 33.008 84.0806 33.216 83.0566 33.216C81.9206 33.216 80.8806 32.928 79.9366 32.352C78.9926 31.76 78.2406 30.944 77.6806 29.904C77.1366 28.848 76.8646 27.656 76.8646 26.328ZM87.6886 26.376C87.6886 25.464 87.4966 24.672 87.1126 24C86.7446 23.328 86.2566 22.816 85.6486 22.464C85.0406 22.112 84.3846 21.936 83.6806 21.936C82.9766 21.936 82.3206 22.112 81.7126 22.464C81.1046 22.8 80.6086 23.304 80.2246 23.976C79.8566 24.632 79.6726 25.416 79.6726 26.328C79.6726 27.24 79.8566 28.04 80.2246 28.728C80.6086 29.416 81.1046 29.944 81.7126 30.312C82.3366 30.664 82.9926 30.84 83.6806 30.84C84.3846 30.84 85.0406 30.664 85.6486 30.312C86.2566 29.96 86.7446 29.448 87.1126 28.776C87.4966 28.088 87.6886 27.288 87.6886 26.376ZM96.7782 15.24V33H94.0422V15.24H96.7782ZM107.042 19.56C108.082 19.56 109.01 19.776 109.826 20.208C110.658 20.64 111.306 21.28 111.77 22.128C112.234 22.976 112.466 24 112.466 25.2V33H109.754V25.608C109.754 24.424 109.458 23.52 108.866 22.896C108.274 22.256 107.466 21.936 106.442 21.936C105.418 21.936 104.602 22.256 103.994 22.896C103.402 23.52 103.106 24.424 103.106 25.608V33H100.37V19.776H103.106V21.288C103.554 20.744 104.122 20.32 104.81 20.016C105.514 19.712 106.258 19.56 107.042 19.56ZM127.86 19.776L119.748 39.216H116.916L119.604 32.784L114.396 19.776H117.444L121.164 29.856L125.028 19.776H127.86ZM135.661 33.216C134.413 33.216 133.285 32.936 132.277 32.376C131.269 31.8 130.477 31 129.901 29.976C129.325 28.936 129.037 27.736 129.037 26.376C129.037 25.032 129.333 23.84 129.925 22.8C130.517 21.76 131.325 20.96 132.349 20.4C133.373 19.84 134.517 19.56 135.781 19.56C137.045 19.56 138.189 19.84 139.213 20.4C140.237 20.96 141.045 21.76 141.637 22.8C142.229 23.84 142.525 25.032 142.525 26.376C142.525 27.72 142.221 28.912 141.613 29.952C141.005 30.992 140.173 31.8 139.117 32.376C138.077 32.936 136.925 33.216 135.661 33.216ZM135.661 30.84C136.365 30.84 137.021 30.672 137.629 30.336C138.253 30 138.757 29.496 139.141 28.824C139.525 28.152 139.717 27.336 139.717 26.376C139.717 25.416 139.533 24.608 139.165 23.952C138.797 23.28 138.309 22.776 137.701 22.44C137.093 22.104 136.437 21.936 135.733 21.936C135.029 21.936 134.373 22.104 133.765 22.44C133.173 22.776 132.701 23.28 132.349 23.952C131.997 24.608 131.821 25.416 131.821 26.376C131.821 27.8 132.181 28.904 132.901 29.688C133.637 30.456 134.557 30.84 135.661 30.84ZM148.422 22.008V29.328C148.422 29.824 148.534 30.184 148.758 30.408C148.998 30.616 149.398 30.72 149.958 30.72H151.638V33H149.478C148.246 33 147.302 32.712 146.646 32.136C145.99 31.56 145.662 30.624 145.662 29.328V22.008H144.102V19.776H145.662V16.488H148.422V19.776H151.638V22.008H148.422Z" fill="white"/>
<path d="M12.336 20.0335C-16.0034 43.3533 46.5624 26.9327 10.4012 40.8221C-1.19269 45.2753 0.0377193 37.0336 0.0377193 17.2574C0.0377193 -2.51889 3.41813 -3.51349 12.336 5.32695C22.455 15.3582 19.8218 14.4812 12.336 20.0335Z" fill="#FBBA20"/>
</svg>
